# Blender v2.78 (sub 0) OBJ File: ''
# www.blender.org
mtllib untitled.mtl
o Plane.001
v 1.273359 7.320574 0.586797
v 4.291282 4.107903 1.973988
v 2.386336 6.465098 -3.815799
v 5.404259 3.252428 -2.428609
v -5.546401 -1.253506 5.546401
v 5.546400 -1.253504 5.546402
v -5.546401 -1.253506 -5.546401
v 5.546401 -1.253504 -5.546400
v 0.999999 -1.000001 -1.000000
v 1.000000 -1.000001 1.000001
v -1.000001 -1.000001 1.000000
v -1.000000 -1.000001 -1.000000
v 1.000000 0.999999 -0.999999
v 0.999999 0.999999 1.000001
v -1.000001 0.999999 1.000000
v -1.000001 0.999999 -1.000000
vn 0.7180 0.6945 0.0465
vn -0.0000 1.0000 0.0000
vn 0.0000 -1.0000 0.0000
vn 1.0000 -0.0000 -0.0000
vn -0.0000 -0.0000 1.0000
vn -1.0000 0.0000 -0.0000
vn 0.0000 0.0000 -1.0000
usemtl Material
s off
f 2//1 3//1 1//1
f 5//2 8//2 7//2
f 9//3 11//3 12//3
f 16//2 14//2 13//2
f 13//4 10//4 9//4
f 14//5 11//5 10//5
f 15//6 12//6 11//6
f 9//7 16//7 13//7
f 2//1 4//1 3//1
f 5//2 6//2 8//2
f 9//3 10//3 11//3
f 16//2 15//2 14//2
f 13//4 14//4 10//4
f 14//5 15//5 11//5
f 15//6 16//6 12//6
f 9//7 12//7 16//7